# Blender v3.0.0 OBJ File: 'collectable_pack.blend'
# www.blender.org
mtllib coin.mtl
o Coin_A_0_Cylinder.003
v 6.631867 0.000000 -0.116982
v 6.631867 0.000000 0.116982
v 6.547214 -0.315934 -0.116982
v 6.547214 -0.315934 0.116982
v 6.315934 -0.547213 -0.116982
v 6.315934 -0.547213 0.116982
v 6.000000 -0.631868 -0.116982
v 6.000000 -0.631868 0.116982
v 5.684066 -0.547213 -0.116982
v 5.684066 -0.547213 0.116982
v 5.452786 -0.315934 -0.116982
v 5.452786 -0.315934 0.116982
v 5.368133 -0.000000 -0.116982
v 5.368133 -0.000000 0.116982
v 5.452786 0.315934 -0.116982
v 5.452786 0.315934 0.116982
v 5.684066 0.547213 -0.116982
v 5.684066 0.547213 0.116982
v 6.000000 0.631868 -0.116982
v 6.000000 0.631868 0.116982
v 6.315934 0.547214 -0.116982
v 6.315934 0.547214 0.116982
v 6.547213 0.315934 -0.116982
v 6.547213 0.315934 0.116982
v 6.499771 0.000000 -0.131641
v 6.432815 -0.249886 -0.131641
v 6.432815 -0.249886 0.131641
v 6.499771 0.000000 0.131641
v 6.249886 -0.432815 -0.131641
v 6.249886 -0.432815 0.131641
v 6.000000 -0.499771 -0.131641
v 6.000000 -0.499771 0.131641
v 5.750114 -0.432815 -0.131641
v 5.750114 -0.432815 0.131641
v 5.567185 -0.249886 -0.131641
v 5.567185 -0.249886 0.131641
v 5.500229 -0.000000 -0.131641
v 5.500229 -0.000000 0.131641
v 5.567185 0.249885 -0.131641
v 5.567185 0.249885 0.131641
v 5.750114 0.432814 -0.131641
v 5.750114 0.432814 0.131641
v 6.000000 0.499771 -0.131641
v 6.000000 0.499771 0.131641
v 6.249886 0.432815 -0.131641
v 6.249886 0.432815 0.131641
v 6.432815 0.249886 -0.131641
v 6.432815 0.249886 0.131641
v 6.599932 0.000000 -0.131641
v 6.519557 -0.299966 -0.131641
v 6.519557 -0.299966 0.131641
v 6.599932 0.000000 0.131641
v 6.299966 -0.519557 -0.131641
v 6.299966 -0.519557 0.131641
v 6.000000 -0.599932 -0.131641
v 6.000000 -0.599932 0.131641
v 5.700034 -0.519556 -0.131641
v 5.700034 -0.519556 0.131641
v 5.480443 -0.299966 -0.131641
v 5.480443 -0.299966 0.131641
v 5.400068 -0.000000 -0.131641
v 5.400068 -0.000000 0.131641
v 5.480443 0.299966 -0.131641
v 5.480443 0.299966 0.131641
v 5.700034 0.519556 -0.131641
v 5.700034 0.519556 0.131641
v 6.000000 0.599932 -0.131641
v 6.000000 0.599932 0.131641
v 6.299966 0.519557 -0.131641
v 6.299966 0.519557 0.131641
v 6.519556 0.299966 -0.131641
v 6.519556 0.299966 0.131641
v 6.472487 0.000000 -0.103556
v 6.409186 -0.236244 -0.103556
v 6.409186 -0.236244 0.103556
v 6.472487 0.000000 0.103556
v 6.236244 -0.409186 -0.103556
v 6.236244 -0.409186 0.103556
v 6.000000 -0.472487 -0.103556
v 6.000000 -0.472487 0.103556
v 5.763756 -0.409186 -0.103556
v 5.763756 -0.409186 0.103556
v 5.590814 -0.236244 -0.103556
v 5.590814 -0.236244 0.103556
v 5.527513 -0.000000 -0.103556
v 5.527513 -0.000000 0.103556
v 5.590814 0.236243 -0.103556
v 5.590814 0.236243 0.103556
v 5.763756 0.409186 -0.103556
v 5.763756 0.409186 0.103556
v 6.000000 0.472487 -0.103556
v 6.000000 0.472487 0.103556
v 6.236243 0.409186 -0.103556
v 6.236243 0.409186 0.103556
v 6.409186 0.236244 -0.103556
v 6.409186 0.236244 0.103556
v 6.000000 0.000000 0.103556
v 6.000000 -0.000000 -0.103556
vt 0.746061 0.371629
vt 0.676160 0.331602
vt 0.684684 0.322829
vt 0.749092 0.359767
vt 0.631984 0.258367
vt 0.632046 0.178137
vt 0.643866 0.181205
vt 0.643720 0.255091
vt 0.896306 0.331426
vt 0.936440 0.262000
vt 0.966083 0.270093
vt 0.917931 0.353341
vt 0.933023 0.257097
vt 0.932902 0.177194
vt 0.962593 0.169336
vt 0.962593 0.265301
vt 0.826619 0.371565
vt 0.834417 0.401402
vt 0.892521 0.107938
vt 0.914319 0.086213
vt 0.737955 0.401402
vt 0.822709 0.068054
vt 0.830768 0.038294
vt 0.654318 0.353366
vt 0.742154 0.068265
vt 0.734314 0.038417
vt 0.635582 0.262184
vt 0.605835 0.270122
vt 0.672379 0.108543
vt 0.650718 0.086581
vt 0.635203 0.181985
vt 0.605531 0.173937
vt 0.602348 0.169956
vt 0.675163 0.112636
vt 0.653611 0.090730
vt 0.602244 0.266198
vt 0.744712 0.073024
vt 0.737193 0.043215
vt 0.672228 0.327561
vt 0.650531 0.349308
vt 0.825164 0.074178
vt 0.833372 0.044502
vt 0.741890 0.366887
vt 0.734165 0.396589
vt 0.895441 0.113390
vt 0.916988 0.091540
vt 0.822222 0.365472
vt 0.830037 0.395241
vt 0.936257 0.182088
vt 0.965869 0.174082
vt 0.892441 0.325995
vt 0.913841 0.348057
vt 0.357894 0.646802
vt 0.301280 0.858087
vt 0.203222 0.801474
vt 0.146608 0.703415
vt 0.353733 0.648492
vt 0.297119 0.859778
vt 0.199061 0.803164
vt 0.142447 0.705106
vt 0.818915 0.353685
vt 0.883834 0.317360
vt 0.747857 0.084798
vt 0.683830 0.121177
vt 0.819702 0.079911
vt 0.745450 0.080057
vt 0.924652 0.258965
vt 0.924582 0.185436
vt 0.887603 0.322865
vt 0.680690 0.318821
vt 0.647323 0.258846
vt 0.921267 0.254026
vt 0.921190 0.180500
vt 0.822092 0.086032
vt 0.681103 0.117124
vt 0.823346 0.359776
vt 0.744754 0.355053
vt 0.647007 0.184985
vt 0.884019 0.116692
vt 0.887043 0.122214
vt 0.512566 0.801474
vt 0.414508 0.858087
vt 0.569180 0.590188
vt 0.569180 0.703415
vt 0.414508 0.435516
vt 0.203222 0.492130
vt 0.301280 0.435516
vt 0.146609 0.590188
vt 0.512566 0.492130
vt 0.508405 0.803164
vt 0.410347 0.859778
vt 0.410347 0.437207
vt 0.199061 0.493820
vt 0.297119 0.437207
vt 0.565019 0.591878
vt 0.508405 0.493820
vt 0.565019 0.705106
vt 0.142447 0.591878
vt 0.967570 0.275529
vt 0.907878 0.256796
vt 0.906410 0.190113
vt 0.967522 0.176418
vt 0.871774 0.132989
vt 0.917888 0.090570
vt 0.813201 0.100777
vt 0.831970 0.040985
vt 0.746368 0.102112
vt 0.732764 0.040946
vt 0.689172 0.136636
vt 0.646831 0.090478
vt 0.656939 0.195083
vt 0.597212 0.176323
vt 0.658315 0.261761
vt 0.597252 0.275445
vt 0.692952 0.318757
vt 0.646961 0.361192
vt 0.751639 0.350702
vt 0.732935 0.410559
vt 0.818537 0.349500
vt 0.832056 0.410638
vt 0.875728 0.315160
vt 0.917961 0.361284
vt 0.978947 0.173269
vt 0.979034 0.278522
vt 0.900625 0.254992
vt 0.899219 0.192184
vt 0.926212 0.082128
vt 0.866573 0.138380
vt 0.834965 0.029511
vt 0.811385 0.108047
vt 0.729626 0.029511
vt 0.748424 0.109315
vt 0.638398 0.082145
vt 0.694549 0.141843
vt 0.585743 0.173329
vt 0.664195 0.196898
vt 0.585828 0.278600
vt 0.665501 0.259694
vt 0.638654 0.369644
vt 0.698132 0.313357
vt 0.729952 0.422022
vt 0.753446 0.343428
vt 0.835179 0.422062
vt 0.816500 0.342294
vt 0.926379 0.369617
vt 0.870364 0.309956
vn 0.1887 0.7044 -0.6843
vn 0.7044 -0.1887 0.6843
vn -0.0000 -0.0000 -1.0000
vn 0.0000 0.0000 1.0000
vn -0.5156 -0.5156 0.6843
vn 0.5156 -0.5156 -0.6843
vn 0.1887 0.7044 0.6843
vn -0.7044 -0.1887 -0.6843
vn -0.7044 0.1887 -0.6843
vn 0.5156 -0.5156 0.6843
vn 0.5156 0.5156 -0.6843
vn -0.7044 -0.1887 0.6843
vn -0.7044 0.1887 0.6843
vn 0.1887 -0.7044 -0.6843
vn 0.5156 0.5156 0.6843
vn -0.5156 0.5156 -0.6843
vn 0.1887 -0.7044 0.6843
vn 0.7044 0.1887 -0.6843
vn -0.5156 0.5156 0.6843
vn -0.1887 -0.7044 -0.6843
vn 0.7044 0.1887 0.6843
vn -0.1887 0.7044 -0.6843
vn -0.1887 -0.7044 0.6843
vn 0.7044 -0.1887 -0.6843
vn -0.1887 0.7044 0.6843
vn -0.5156 -0.5156 -0.6843
vn 0.8643 0.0000 -0.5029
vn 0.8643 0.0000 0.5029
vn 0.7486 -0.4322 0.5029
vn 0.7486 -0.4322 -0.5029
vn 0.4322 -0.7486 0.5029
vn 0.4322 -0.7486 -0.5029
vn 0.0000 -0.8643 0.5029
vn 0.0000 -0.8643 -0.5029
vn -0.4322 -0.7486 0.5029
vn -0.4322 -0.7486 -0.5029
vn -0.7486 -0.4322 0.5029
vn -0.7486 -0.4322 -0.5029
vn -0.8643 0.0000 0.5029
vn -0.8643 0.0000 -0.5029
vn -0.7486 0.4322 0.5029
vn -0.7486 0.4322 -0.5029
vn -0.4322 0.7486 0.5029
vn -0.4322 0.7486 -0.5029
vn 0.0000 0.8643 0.5029
vn 0.0000 0.8643 -0.5029
vn 0.4322 0.7486 0.5029
vn 0.4322 0.7486 -0.5029
vn 0.7486 0.4322 0.5029
vn 0.7486 0.4322 -0.5029
vn 0.2138 -0.1234 -0.9690
vn 0.2469 0.0000 -0.9690
vn 0.2469 0.0000 0.9690
vn 0.2138 -0.1234 0.9690
vn 0.1234 -0.2138 -0.9690
vn 0.1234 -0.2138 0.9690
vn 0.0000 -0.2469 -0.9690
vn 0.0000 -0.2469 0.9690
vn -0.1234 -0.2138 -0.9690
vn -0.1234 -0.2138 0.9690
vn -0.2138 -0.1234 -0.9690
vn -0.2138 -0.1234 0.9690
vn -0.2469 0.0000 -0.9690
vn -0.2469 0.0000 0.9690
vn -0.2138 0.1234 -0.9690
vn -0.2138 0.1234 0.9690
vn -0.1234 0.2138 -0.9690
vn -0.1234 0.2138 0.9690
vn 0.0000 0.2469 -0.9690
vn 0.0000 0.2469 0.9690
vn 0.1234 0.2138 -0.9690
vn 0.1234 0.2138 0.9690
vn 0.2138 0.1234 -0.9690
vn 0.2138 0.1234 0.9690
usemtl Mat_Coin_1
s off
f 31/1/1 33/2/1 81/3/1 79/4/1
f 40/5/2 38/6/2 86/7/2 88/8/2
f 26/9/3 25/10/3 49/11/3 50/12/3
f 28/13/4 27/14/4 51/15/4 52/16/4
f 29/17/3 26/9/3 50/12/3 53/18/3
f 27/14/4 30/19/4 54/20/4 51/15/4
f 31/1/3 29/17/3 53/18/3 55/21/3
f 30/19/4 32/22/4 56/23/4 54/20/4
f 33/2/3 31/1/3 55/21/3 57/24/3
f 32/22/4 34/25/4 58/26/4 56/23/4
f 35/27/3 33/2/3 57/24/3 59/28/3
f 34/25/4 36/29/4 60/30/4 58/26/4
f 37/31/3 35/27/3 59/28/3 61/32/3
f 36/29/4 38/6/4 62/33/4 60/30/4
f 39/34/3 37/31/3 61/32/3 63/35/3
f 38/6/4 40/5/4 64/36/4 62/33/4
f 41/37/3 39/34/3 63/35/3 65/38/3
f 40/5/4 42/39/4 66/40/4 64/36/4
f 43/41/3 41/37/3 65/38/3 67/42/3
f 42/39/4 44/43/4 68/44/4 66/40/4
f 45/45/3 43/41/3 67/42/3 69/46/3
f 44/43/4 46/47/4 70/48/4 68/44/4
f 47/49/3 45/45/3 69/46/3 71/50/3
f 46/47/4 48/51/4 72/52/4 70/48/4
f 25/10/3 47/49/3 71/50/3 49/11/3
f 48/51/4 28/13/4 52/16/4 72/52/4
f 97/53/4 92/54/4 90/55/4 88/56/4
f 98/57/3 79/58/3 81/59/3 83/60/3
f 48/51/5 46/47/5 94/61/5 96/62/5
f 39/34/6 41/37/6 89/63/6 87/64/6
f 34/25/7 32/22/7 80/65/7 82/66/7
f 47/49/8 25/10/8 73/67/8 95/68/8
f 25/10/9 26/9/9 74/69/9 73/67/9
f 42/39/10 40/5/10 88/8/10 90/70/10
f 33/2/11 35/27/11 83/71/11 81/3/11
f 28/13/12 48/51/12 96/62/12 76/72/12
f 27/14/13 28/13/13 76/72/13 75/73/13
f 41/37/14 43/41/14 91/74/14 89/63/14
f 36/29/15 34/25/15 82/66/15 84/75/15
f 26/9/16 29/17/16 77/76/16 74/69/16
f 44/43/17 42/39/17 90/70/17 92/77/17
f 35/27/18 37/31/18 85/78/18 83/71/18
f 30/19/19 27/14/19 75/73/19 78/79/19
f 43/41/20 45/45/20 93/80/20 91/74/20
f 38/6/21 36/29/21 84/75/21 86/7/21
f 29/17/22 31/1/22 79/4/22 77/76/22
f 46/47/23 44/43/23 92/77/23 94/61/23
f 37/31/24 39/34/24 87/64/24 85/78/24
f 32/22/25 30/19/25 78/79/25 80/65/25
f 45/45/26 47/49/26 95/68/26 93/80/26
f 97/53/4 96/81/4 94/82/4 92/54/4
f 75/83/4 76/84/4 96/81/4 97/53/4
f 80/85/4 97/53/4 84/86/4 82/87/4
f 84/86/4 97/53/4 88/56/4 86/88/4
f 78/89/4 75/83/4 97/53/4 80/85/4
f 74/90/3 77/91/3 79/58/3 98/57/3
f 91/92/3 98/57/3 87/93/3 89/94/3
f 95/95/3 98/57/3 91/92/3 93/96/3
f 73/97/3 74/90/3 98/57/3 95/95/3
f 87/93/3 98/57/3 83/60/3 85/98/3
s 1
f 1/99/27 2/100/28 4/101/29 3/102/30
f 3/102/30 4/101/29 6/103/31 5/104/32
f 5/104/32 6/103/31 8/105/33 7/106/34
f 7/106/34 8/105/33 10/107/35 9/108/36
f 9/108/36 10/107/35 12/109/37 11/110/38
f 11/110/38 12/109/37 14/111/39 13/112/40
f 13/112/40 14/111/39 16/113/41 15/114/42
f 15/114/42 16/113/41 18/115/43 17/116/44
f 17/116/44 18/115/43 20/117/45 19/118/46
f 19/118/46 20/117/45 22/119/47 21/120/48
f 21/120/48 22/119/47 24/121/49 23/122/50
f 23/122/50 24/121/49 2/100/28 1/99/27
f 1/99/27 3/102/30 50/123/51 49/124/52
f 4/101/29 2/100/28 52/125/53 51/126/54
f 3/102/30 5/104/32 53/127/55 50/123/51
f 6/103/31 4/101/29 51/126/54 54/128/56
f 5/104/32 7/106/34 55/129/57 53/127/55
f 8/105/33 6/103/31 54/128/56 56/130/58
f 7/106/34 9/108/36 57/131/59 55/129/57
f 10/107/35 8/105/33 56/130/58 58/132/60
f 9/108/36 11/110/38 59/133/61 57/131/59
f 12/109/37 10/107/35 58/132/60 60/134/62
f 11/110/38 13/112/40 61/135/63 59/133/61
f 14/111/39 12/109/37 60/134/62 62/136/64
f 13/112/40 15/114/42 63/137/65 61/135/63
f 16/113/41 14/111/39 62/136/64 64/138/66
f 15/114/42 17/116/44 65/139/67 63/137/65
f 18/115/43 16/113/41 64/138/66 66/140/68
f 17/116/44 19/118/46 67/141/69 65/139/67
f 20/117/45 18/115/43 66/140/68 68/142/70
f 19/118/46 21/120/48 69/143/71 67/141/69
f 22/119/47 20/117/45 68/142/70 70/144/72
f 21/120/48 23/122/50 71/145/73 69/143/71
f 24/121/49 22/119/47 70/144/72 72/146/74
f 23/122/50 1/99/27 49/124/52 71/145/73
f 2/100/28 24/121/49 72/146/74 52/125/53
